<svg width="23" height="28" viewBox="0 0 23 28" fill="none" xmlns="http://www.w3.org/2000/svg">
<path d="M11.4733 20.6667C16.3573 20.6667 20.628 22.7667 22.9507 25.9001L20.4947 27.0614C18.604 24.8214 15.2707 23.3334 11.4747 23.3334C7.67733 23.3334 4.34533 24.8214 2.45467 27.0614L0 25.8987C2.32267 22.7654 6.592 20.6667 11.4733 20.6667ZM11.4733 0.666748C13.2414 0.666748 14.9371 1.36913 16.1874 2.61937C17.4376 3.86961 18.14 5.5653 18.14 7.33342V11.3334C18.1399 13.0511 17.4768 14.7026 16.2889 15.9433C15.1011 17.1841 13.4801 17.9185 11.764 17.9934L11.4733 18.0001C9.70522 18.0001 8.00953 17.2977 6.75929 16.0475C5.50905 14.7972 4.80667 13.1015 4.80667 11.3334V7.33342C4.80677 5.61546 5.47006 3.96387 6.65821 2.72305C7.84637 1.48222 9.46767 0.747974 11.184 0.673415L11.4747 0.666748H11.4733ZM11.4733 3.33341C10.4533 3.3337 9.47188 3.72367 8.72983 4.42358C7.98779 5.12349 7.54118 6.08045 7.48133 7.09875L7.47467 7.33342V11.3334C7.47366 12.3746 7.87869 13.3752 8.6037 14.1225C9.3287 14.8698 10.3165 15.305 11.3573 15.3355C12.398 15.3661 13.4097 14.9896 14.1773 14.2861C14.9449 13.5826 15.4079 12.6076 15.468 11.5681L15.4733 11.3334V7.33342C15.4733 6.27255 15.0519 5.25513 14.3018 4.50499C13.5516 3.75484 12.5342 3.33341 11.4733 3.33341Z" fill="#FCD406"/>
</svg>
