<svg viewBox="0 0 81 82" fill="none" xmlns="http://www.w3.org/2000/svg">
<g opacity="0.6">
<path d="M53.9394 17.8085C53.7678 16.9576 53.6813 16.0917 53.6813 15.2237C53.6842 12.4007 54.6133 9.65662 56.326 7.41256C58.0387 5.1685 60.4404 3.54837 63.1627 2.80079C65.8848 2.05319 68.7771 2.21944 71.3957 3.27402C74.0144 4.32861 76.2145 6.21323 77.6589 8.63879C79.1031 11.0644 79.7117 13.8968 79.3911 16.7015C79.0705 19.5062 77.8386 22.1282 75.8842 24.1653C73.9299 26.2024 71.3612 27.542 68.5721 27.9786C65.783 28.415 62.9278 27.9244 60.4445 26.5819" stroke="#9D00FF" stroke-width="3" stroke-linecap="round" stroke-linejoin="round"/>
</g>
<path d="M53.9394 17.8085C53.7678 16.9576 53.6813 16.0917 53.6813 15.2237C53.6842 12.4007 54.6133 9.65662 56.326 7.41256C58.0387 5.1685 60.4404 3.54837 63.1627 2.80079C65.8848 2.05319 68.7771 2.21944 71.3957 3.27402C74.0144 4.32861 76.2145 6.21323 77.6589 8.63879C79.1031 11.0644 79.7117 13.8968 79.3911 16.7015C79.0705 19.5062 77.8386 22.1282 75.8842 24.1653C73.9299 26.2024 71.3612 27.542 68.5721 27.9786C65.783 28.415 62.9278 27.9244 60.4445 26.5819" stroke="#9D00FF" stroke-width="3" stroke-linecap="round" stroke-linejoin="round"/>
<g opacity="0.81">
<path d="M27.8674 79.7588H48.5185" stroke="#FCD406" stroke-width="3" stroke-linecap="round" stroke-linejoin="round"/>
<path d="M38.193 79.7585V48.7817" stroke="#FCD406" stroke-width="3" stroke-linecap="round" stroke-linejoin="round"/>
<path d="M2.157 0.645605L0.485787 0.541992L0.278572 3.88442L1.94979 3.98802L2.157 0.645605ZM14.4812 3.08729L15.9359 2.25827L15.488 1.47206L14.5848 1.41607L14.4812 3.08729ZM22.0103 19.6818C22.4682 20.4852 23.4907 20.7654 24.2942 20.3076C25.0976 19.8497 25.3778 18.8272 24.92 18.0238L22.0103 19.6818ZM1.94979 3.98802L14.3776 4.75852L14.5848 1.41607L2.157 0.645605L1.94979 3.98802ZM13.0263 3.91629L22.0103 19.6818L24.92 18.0238L15.9359 2.25827L13.0263 3.91629Z" fill="#FCD406"/>
<path d="M65.3192 19.399L66.5496 20.5348L69.1439 17.7246H65.3192V19.399ZM11.0633 19.399V17.7246H7.23821L9.833 20.5348L11.0633 19.399ZM38.193 48.7818L36.9627 49.9178C37.2797 50.2611 37.7257 50.4564 38.193 50.4563C38.6602 50.4563 39.1063 50.261 39.4232 49.9176L38.193 48.7818ZM9.833 20.5348L36.9627 49.9178L39.4231 47.646L12.2934 18.2631L9.833 20.5348ZM65.3192 17.7246H11.0633V21.0734H65.3192V17.7246ZM64.089 18.2632L36.9626 47.6461L39.4232 49.9176L66.5496 20.5348L64.089 18.2632Z" fill="#FCD406"/>
</g>
<path d="M27.8674 79.7588H48.5185" stroke="#FCD406" stroke-width="3" stroke-linecap="round" stroke-linejoin="round"/>
<path d="M38.193 79.7585V48.7817" stroke="#FCD406" stroke-width="3" stroke-linecap="round" stroke-linejoin="round"/>
<path d="M2.157 0.645605L0.485787 0.541992L0.278572 3.88442L1.94979 3.98802L2.157 0.645605ZM14.4812 3.08729L15.9359 2.25827L15.488 1.47206L14.5848 1.41607L14.4812 3.08729ZM22.0103 19.6818C22.4682 20.4852 23.4907 20.7654 24.2942 20.3076C25.0976 19.8497 25.3778 18.8272 24.92 18.0238L22.0103 19.6818ZM1.94979 3.98802L14.3776 4.75852L14.5848 1.41607L2.157 0.645605L1.94979 3.98802ZM13.0263 3.91629L22.0103 19.6818L24.92 18.0238L15.9359 2.25827L13.0263 3.91629Z" fill="#FCD406"/>
<path d="M65.3192 19.399L66.5496 20.5348L69.1439 17.7246H65.3192V19.399ZM11.0633 19.399V17.7246H7.23821L9.833 20.5348L11.0633 19.399ZM38.193 48.7818L36.9627 49.9178C37.2797 50.2611 37.7257 50.4564 38.193 50.4563C38.6602 50.4563 39.1063 50.261 39.4232 49.9176L38.193 48.7818ZM9.833 20.5348L36.9627 49.9178L39.4231 47.646L12.2934 18.2631L9.833 20.5348ZM65.3192 17.7246H11.0633V21.0734H65.3192V17.7246ZM64.089 18.2632L36.9626 47.6461L39.4232 49.9176L66.5496 20.5348L64.089 18.2632Z" fill="#FCD406"/>
</svg>
