<svg width="27" height="28" viewBox="0 0 27 28" fill="none" xmlns="http://www.w3.org/2000/svg">
<path d="M13.3333 27.1667C5.96933 27.1667 0 21.1973 0 13.8333C0 6.46933 5.96933 0.5 13.3333 0.5C20.6973 0.5 26.6667 6.46933 26.6667 13.8333C26.6667 21.1973 20.6973 27.1667 13.3333 27.1667ZM13.3333 24.5C16.1623 24.5 18.8754 23.3762 20.8758 21.3758C22.8762 19.3754 24 16.6623 24 13.8333C24 11.0044 22.8762 8.29125 20.8758 6.29086C18.8754 4.29047 16.1623 3.16667 13.3333 3.16667C10.5044 3.16667 7.79125 4.29047 5.79086 6.29086C3.79047 8.29125 2.66667 11.0044 2.66667 13.8333C2.66667 16.6623 3.79047 19.3754 5.79086 21.3758C7.79125 23.3762 10.5044 24.5 13.3333 24.5ZM14.6667 13.8333H20V16.5H12V7.16667H14.6667V13.8333Z" fill="#FCD406"/>
</svg>
