<svg width="27" height="28" viewBox="0 0 27 28" fill="none" xmlns="http://www.w3.org/2000/svg">
<path d="M9.33333 0.5V3.16667H17.3333V0.5H20V3.16667H25.3333C25.687 3.16667 26.0261 3.30714 26.2761 3.55719C26.5262 3.80724 26.6667 4.14638 26.6667 4.5V25.8333C26.6667 26.187 26.5262 26.5261 26.2761 26.7761C26.0261 27.0262 25.687 27.1667 25.3333 27.1667H1.33333C0.979711 27.1667 0.640573 27.0262 0.390524 26.7761C0.140476 26.5261 0 26.187 0 25.8333V4.5C0 4.14638 0.140476 3.80724 0.390524 3.55719C0.640573 3.30714 0.979711 3.16667 1.33333 3.16667H6.66667V0.5H9.33333ZM24 13.8333H2.66667V24.5H24V13.8333ZM8 16.5V19.1667H5.33333V16.5H8ZM14.6667 16.5V19.1667H12V16.5H14.6667ZM21.3333 16.5V19.1667H18.6667V16.5H21.3333ZM6.66667 5.83333H2.66667V11.1667H24V5.83333H20V8.5H17.3333V5.83333H9.33333V8.5H6.66667V5.83333Z" fill="#FCD406"/>
</svg>
