<svg width="64" height="64" viewBox="0 0 64 64" fill="none" xmlns="http://www.w3.org/2000/svg">
<rect width="64" height="64" rx="4" fill="#0F0F0F"/>
<path d="M32.0008 16C23.1098 16 15.9026 23.2072 15.9026 32.0982C15.9026 40.1328 21.7897 46.7926 29.4862 48V36.7522H25.3973V32.0982H29.4862V28.5518C29.4862 24.5176 31.8881 22.2896 35.5665 22.2896C37.3277 22.2896 39.1693 22.6035 39.1693 22.6035V26.5636H37.1409C35.1399 26.5636 34.5169 27.8048 34.5169 29.0782V32.0982H38.981L38.2678 36.7506H34.5169V48C42.2103 46.7926 48.0974 40.1328 48.0974 32.0982C48.0974 23.2072 40.8918 16 32.0008 16Z" fill="white" fill-opacity="0.72"/>
</svg>
