<svg width="200" height="200" viewBox="0 0 304 304" fill="none" xmlns="http://www.w3.org/2000/svg">
<path d="M138.676 137L140.74 129.8H135.316L133.252 137H125.092L127.156 129.8H121.78L123.556 123.56H128.932L130.66 117.464H125.236L127.3 110.264H132.724L134.932 102.44H143.092L140.884 110.264H146.308L148.516 102.44H156.676L154.468 110.264H159.892L157.828 117.464H152.404L150.676 123.56H156.148L154.372 129.8H148.9L146.836 137H138.676ZM142.516 123.56L144.244 117.464H138.82L137.092 123.56H142.516ZM166.48 118.04L160.912 111.368C163.792 108.968 167.632 105.272 169.984 102.44H180.544V137H170.944V114.152C169.792 115.496 168.16 116.888 166.48 118.04Z" fill="white"/>
<path d="M120.93 167.432L121.122 169.472C120.042 169.976 118.578 170.264 117.162 170.264C111.93 170.264 108.354 166.904 108.354 161.36C108.354 156.032 111.954 152.456 116.946 152.456C118.458 152.456 119.994 152.72 121.026 153.272L120.834 155.6C119.85 155.12 118.626 154.856 117.09 154.856C113.178 154.856 110.586 157.592 110.586 161.504C110.586 165.536 113.226 168.176 117.33 168.176C118.626 168.176 119.946 167.864 120.93 167.432ZM124.526 170V152.72H126.71V167.96H133.622V170H124.526ZM136.219 162.248V152.72H138.403V162.224C138.403 166.136 139.795 168.2 142.747 168.2C145.747 168.2 147.139 166.136 147.139 162.2V152.72H149.323V162.248C149.323 167.36 147.067 170.264 142.747 170.264C138.307 170.264 136.219 167.384 136.219 162.248ZM153.753 170V152.72H157.929C162.201 152.72 163.953 154.28 163.953 156.968C163.953 158.744 163.233 160.184 161.409 160.76C163.593 161.384 164.745 162.896 164.745 165.056C164.745 167.72 163.281 170 158.313 170H153.753ZM157.929 155H155.889V160.328H157.785C160.833 160.328 161.721 159.224 161.721 157.496C161.721 155.936 160.737 155 157.929 155ZM158.121 162.08H155.889V168.128H158.313C161.505 168.128 162.513 166.904 162.513 165.152C162.513 163.064 160.905 162.08 158.121 162.08ZM174.003 170V152.72H176.187V170H174.003ZM180.753 170V152.72H182.865L192.561 166.496V152.72H194.649V170H192.513L182.817 156.56V170H180.753Z" fill="white" fill-opacity="0.8"/>
<path d="M98.1492 198.656H97.2852V203H92.4852V185.72H97.9812C102.565 185.72 105.829 187.688 105.829 192.128C105.829 196.544 102.733 198.656 98.1492 198.656ZM98.3892 190.64H97.2852V194.456H98.3892C99.9732 194.456 100.909 193.856 100.909 192.536C100.909 191.216 99.9492 190.64 98.3892 190.64ZM106.909 194.384C106.909 188.96 110.581 185.384 115.621 185.384C120.685 185.384 124.405 188.96 124.405 194.384C124.405 199.712 120.853 203.336 115.669 203.336C110.485 203.336 106.909 199.712 106.909 194.384ZM115.645 198.776C117.997 198.776 119.485 197.144 119.485 194.696C119.485 192.128 117.829 190.544 115.621 190.544C113.437 190.544 111.829 192.128 111.829 194.696C111.829 197.144 113.365 198.776 115.645 198.776ZM126.212 203V185.72H131.012V192.968L135.764 185.72H141.692L135.524 194.168L142.292 203H136.316L131.012 196.016V203H126.212ZM143.602 203V185.72H148.402V192.32H154.402V185.72H159.202V203H154.402V196.76H148.402V203H143.602ZM173.314 203L172.474 200.528H166.258L165.442 203H160.522L166.642 185.72H172.402L178.594 203H173.314ZM171.058 196.328L169.354 191.24L167.65 196.328H171.058ZM179.907 203V185.72H185.523C189.915 185.72 193.059 187.496 193.059 191.48C193.059 192.584 192.915 193.88 192.243 195.008C191.715 195.872 190.875 196.664 189.555 197.168L194.403 203H188.763L184.707 197.816V203H179.907ZM185.787 190.64H184.707V193.976H185.931C187.299 193.976 188.139 193.376 188.139 192.128C188.139 191.12 187.227 190.64 185.787 190.64ZM207.322 203L206.482 200.528H200.266L199.45 203H194.53L200.65 185.72H206.41L212.602 203H207.322ZM205.066 196.328L203.362 191.24L201.658 196.328H205.066Z" fill="white"/>
<path d="M140.053 285.487C141.24 285.589 142.072 286.479 141.969 287.689C141.864 288.92 140.916 289.636 139.707 289.533C138.498 289.43 137.686 288.563 137.791 287.332C137.895 286.122 138.866 285.386 140.053 285.487Z" fill="#FCD406"/>
<path d="M113.808 273.856L113.871 284.972L119.743 275.577L123.855 276.769L124.241 293.424L120.32 292.287L120.505 279.842L114.152 290.499L110.379 289.405L110.629 276.978L104.276 287.635L100.609 286.572L109.676 272.658L113.808 273.856Z" fill="#FCD406"/>
<path d="M96.5674 267.167L89.0912 281.187L80.0368 276.359L81.7709 273.107L87.6708 276.253L88.9065 273.936L83.4544 271.029L85.0223 268.088L90.4744 270.996L91.8554 268.406L85.9555 265.26L87.513 262.339L96.5674 267.167Z" fill="#FCD406"/>
<path d="M78.9476 256.877L69.404 269.58L66.5458 267.433L74.1011 257.376L69.3375 253.797L71.3257 251.151L78.9476 256.877Z" fill="#FCD406"/>
<path d="M53.6259 239.664L55.8127 237.165C56.9777 237.571 58.0916 238.303 59.0768 239.315C62.3558 242.683 62.7794 247.198 58.9532 250.924C55.3009 254.48 50.5768 254.152 47.2978 250.784C46.3279 249.788 45.5632 248.623 45.2029 247.557L48.1067 245.13C48.3908 246.055 48.9563 246.952 49.8338 247.853C51.9274 250.003 54.5636 250.085 56.5558 248.145C58.6112 246.144 58.5201 243.615 56.3802 241.417C55.5489 240.563 54.5891 239.989 53.6259 239.664Z" fill="#FCD406"/>
<path d="M44.239 234.87C40.1491 237.646 35.5513 236.766 32.9734 232.969C30.3832 229.153 31.2381 224.518 35.328 221.742C39.3631 219.003 43.942 219.816 46.5694 223.686C49.2093 227.575 48.2741 232.131 44.239 234.87ZM43.77 225.613C42.3324 223.495 39.8502 223.1 37.5679 224.649C35.2491 226.223 34.7806 228.755 36.1687 230.8C37.5567 232.845 40.0454 233.289 42.3642 231.715C44.6466 230.166 45.1829 227.695 43.77 225.613Z" fill="#FCD406"/>
<path d="M34.541 202.405L26.9253 209.896L36.0744 206.093L37.3451 209.149L22.674 215.249L20.9881 211.194L29.9712 202.679L17.5656 202.962L15.8798 198.907L30.5509 192.807L31.8555 195.945L22.6453 199.774L33.4143 199.695L34.541 202.405Z" fill="#FCD406"/>
<path d="M28.0123 183.566L12.4651 186.841L10.3496 176.8L13.9557 176.04L15.3342 182.583L17.9038 182.042L16.63 175.996L19.8906 175.309L21.1644 181.355L24.0363 180.75L22.6579 174.207L25.8969 173.525L28.0123 183.566Z" fill="#FCD406"/>
<path d="M12.4365 165.314L8.77846 165.509L8.14915 153.698L11.8072 153.503L12.0267 157.624L24.2347 156.973L24.4249 160.543L12.2169 161.193L12.4365 165.314Z" fill="#FCD406"/>
<path d="M16.1965 144.195C11.2873 143.617 8.38682 139.943 8.92336 135.384C9.46247 130.804 13.142 127.859 18.0512 128.437C22.8947 129.007 25.8248 132.618 25.278 137.265C24.7285 141.933 21.04 144.765 16.1965 144.195ZM21.9003 136.889C22.1995 134.347 20.5817 132.423 17.8422 132.101C15.0588 131.773 13.0476 133.381 12.7587 135.836C12.4698 138.29 14.0605 140.255 16.8439 140.583C19.5834 140.905 21.6062 139.388 21.9003 136.889Z" fill="#FCD406"/>
<path d="M23.1847 114.188C22.8528 115.332 21.8166 115.974 20.651 115.636C19.4641 115.292 18.9469 114.223 19.2849 113.057C19.6229 111.891 20.6317 111.265 21.8186 111.609C22.9843 111.947 23.5165 113.043 23.1847 114.188Z" fill="#FCD406"/>
<path d="M34.6814 91.7535L37.7991 92.8968C37.839 94.1297 37.5553 95.4324 36.9648 96.7154C34.9998 100.985 30.9377 103.003 26.0864 100.77C21.4557 98.6388 20.0652 94.1121 22.0302 89.8423C22.6115 88.5793 23.424 87.4472 24.2894 86.728L27.5974 88.5662C26.8367 89.1635 26.2026 90.0134 25.6768 91.1561C24.4221 93.8824 25.2925 96.3721 27.8184 97.5345C30.4244 98.7338 32.7521 97.7403 34.0345 94.9538C34.5327 93.8713 34.7241 92.7691 34.6814 91.7535Z" fill="#FCD406"/>
<path d="M48.776 76.417L45.6898 75.6096L42.2298 80.6487L44.0918 83.2389L42.0182 86.2587L32.1929 72.4988L34.6162 68.9696L50.9994 73.1789L48.776 76.417ZM42.4763 74.7147L36.7496 73.1917L40.2154 78.0074L42.4763 74.7147Z" fill="#FCD406"/>
<path d="M46.9458 59.1142L44.3078 56.5727L52.5143 48.0546L55.1524 50.5961L52.2893 53.5679L61.0934 62.05L58.6131 64.6245L49.8089 56.1424L46.9458 59.1142Z" fill="#FCD406"/>
<path d="M81.7049 45.1614L73.0703 38.1609L76.6111 48.6589L73.0819 51.0821L59.9588 40.8193L63.3243 38.5085L72.83 46.5438L68.6182 34.8737L71.8564 32.6503L81.3075 40.723L77.0957 29.0529L80.2429 26.892L85.2523 42.7257L81.7049 45.1614Z" fill="#FCD406"/>
<path d="M107.693 32.0153L105.568 29.6364L99.8989 31.9229L100.019 35.1107L96.6214 36.4809L96.0402 19.5831L100.01 17.9817L111.336 30.546L107.693 32.0153ZM103.385 27.1143L99.4544 22.6794L99.6804 28.6084L103.385 27.1143Z" fill="#FCD406"/>
<path d="M119.564 28.256L116.123 12.7446L119.613 11.9703L122.337 24.2502L128.154 22.9598L128.871 26.1913L119.564 28.256Z" fill="#FCD406"/>
<path d="M138.257 24.74L137.411 8.87401L140.981 8.68374L141.351 15.6251L146.006 8.41597L150.457 8.17873L144.748 16.3281L151.875 24.0142L147.358 24.255L141.472 17.8949L141.827 24.5498L138.257 24.74Z" fill="#FCD406"/>
<path d="M166.511 18.621C165.326 18.4944 164.514 17.5863 164.643 16.3795C164.774 15.1507 165.736 14.4546 166.943 14.5836C168.15 14.7126 168.943 15.5964 168.812 16.8252C168.683 18.032 167.696 18.7477 166.511 18.621Z" fill="#FCD406"/>
<path d="M185.137 28.603L187.197 25.2365L184.349 24.4433L182.289 27.8098L179.355 26.993L181.415 23.6265L178.906 22.928L180.205 20.8156L182.713 21.514L184.386 18.7958L181.835 18.0855L183.334 15.6625L185.864 16.3669L187.975 12.9001L190.909 13.7169L188.798 17.1838L191.647 17.977L193.757 14.5101L196.691 15.327L194.559 18.7879L197.11 19.4982L195.611 21.9212L193.081 21.2168L191.408 23.935L193.98 24.6512L192.682 26.7637L190.131 26.0534L188.071 29.4198L185.137 28.603ZM188.496 23.1241L190.147 20.4L187.299 19.6068L185.647 22.3309L188.496 23.1241Z" fill="white"/>
<path d="M207.057 26.2835L206.232 23.1466C207.801 22.7587 210.081 21.9961 211.533 21.2855L215.132 22.9653L208.413 37.3632L205.174 35.8515L210.054 25.393C209.186 25.7916 208.089 26.1075 207.057 26.2835Z" fill="white"/>
<path d="M225.129 39.6028C224.129 38.9547 223.814 37.7774 224.474 36.7589C225.146 35.7219 226.319 35.5354 227.338 36.1955C228.356 36.8556 228.665 38.0023 227.993 39.0394C227.332 40.0578 226.129 40.2509 225.129 39.6028Z" fill="white"/>
<path d="M243.289 57.086L241.295 59.7409C240.103 59.4232 238.937 58.7755 237.88 57.8398C234.359 54.7258 233.6 50.2543 237.138 46.2541C240.515 42.4357 245.25 42.4111 248.771 45.5251C249.813 46.4462 250.662 47.551 251.101 48.5871L248.386 51.2237C248.034 50.3229 247.403 49.4705 246.461 48.6372C244.213 46.6489 241.578 46.7635 239.736 48.8463C237.835 50.9952 238.114 53.5106 240.412 55.5428C241.305 56.3323 242.305 56.8337 243.289 57.086Z" fill="white"/>
<path d="M247.151 66.741L259.382 56.6001L261.664 59.3522L251.981 67.3804L255.784 71.9672L253.236 74.0799L247.151 66.741Z" fill="white"/>
<path d="M264.705 78.2096L272.486 73.6801L274.285 76.7697L266.523 81.2881C264.368 82.5426 263.682 84.0399 264.67 85.7372C265.669 87.4537 267.321 87.6156 269.495 86.35L277.238 81.8427L279.036 84.9323L271.255 89.4618C267.536 91.6266 263.891 91.0674 261.771 87.4247C259.573 83.6485 260.891 80.43 264.705 78.2096Z" fill="white"/>
<path d="M269.638 102.211L284.526 96.6615L286.222 101.211C287.586 104.871 286.804 107.07 284.447 107.948C283.041 108.472 281.672 108.276 280.657 107.194C280.761 109.181 279.78 110.465 277.939 111.151C275.499 112.06 273.022 111.288 271.449 107.07L269.638 102.211ZM282.753 102.456L282.291 101.216L279.334 102.318L279.788 103.538C280.328 104.985 281.113 105.258 282.064 104.903C283.036 104.541 283.254 103.8 282.753 102.456ZM277.446 104.835L276.852 103.243L273.585 104.46L274.202 106.115C274.811 107.748 275.709 108.073 276.701 107.703C277.735 107.317 277.993 106.303 277.446 104.835Z" fill="white"/>
<path d="M283.158 124.653C282.912 123.487 283.525 122.434 284.713 122.184C285.922 121.929 286.881 122.629 287.131 123.816C287.382 125.004 286.786 126.031 285.577 126.286C284.389 126.536 283.404 125.82 283.158 124.653Z" fill="white"/>
<path d="M278.947 139.059L294.778 137.707L295.083 141.269L279.252 142.621L278.947 139.059Z" fill="white"/>
<path d="M279.8 152.573L295.656 153.587L295.429 157.133L284.643 163.275L294.994 163.938L294.782 167.241L278.926 166.227L279.153 162.681L289.344 156.5L279.588 155.876L279.8 152.573Z" fill="white"/>
<path d="M282.369 182.733C282.64 181.572 283.64 180.876 284.822 181.152C286.026 181.432 286.599 182.472 286.324 183.654C286.048 184.836 285.074 185.515 283.871 185.235C282.689 184.96 282.099 183.893 282.369 182.733Z" fill="white"/>
<path d="M275.196 199.884L275.538 199.023L271.252 197.32L272.571 193.998L287.338 199.862L285.692 204.005C284.186 207.799 281.552 209.769 277.962 208.343C274.353 206.91 273.705 203.637 275.196 199.884ZM282.162 202.911L282.593 201.824L278.45 200.179L278.043 201.205C277.351 202.948 277.592 204.255 279.048 204.833C280.463 205.395 281.486 204.614 282.162 202.911Z" fill="white"/>
<path d="M271.541 216.275C275.745 218.874 276.82 223.43 274.406 227.334C271.981 231.257 267.401 232.37 263.197 229.77C259.049 227.205 257.921 222.694 260.381 218.715C262.853 214.717 267.393 213.71 271.541 216.275ZM263.283 220.483C261.937 222.66 262.589 225.088 264.936 226.538C267.319 228.012 269.822 227.406 271.121 225.304C272.421 223.201 271.81 220.748 269.427 219.274C267.08 217.824 264.606 218.343 263.283 220.483Z" fill="white"/>
<path d="M250.768 233.006L262.5 243.721L260.089 246.361L254.956 241.673L256.696 250.076L253.69 253.367L252.043 243.554L241.571 243.076L244.622 239.736L253.278 240.14L248.357 235.646L250.768 233.006Z" fill="white"/>
<path d="M234.581 249.514L244.125 262.217L241.266 264.364L237.462 259.301L232.187 263.264L235.991 268.327L233.133 270.475L223.589 257.772L226.448 255.624L230.199 260.617L235.474 256.654L231.723 251.661L234.581 249.514Z" fill="white"/>
<path d="M204.846 268.187L207.143 270.401L212.626 267.698L212.269 264.528L215.555 262.908L217.393 279.716L213.553 281.609L201.323 269.923L204.846 268.187ZM209.508 272.753L213.758 276.883L213.091 270.987L209.508 272.753Z" fill="white"/>
<path d="M193.32 272.87L197.745 288.13L193.358 289.402C189.649 290.478 186.566 289.671 185.607 286.365C185.288 285.263 185.204 284.023 185.654 282.882C186.078 281.886 186.842 281.113 187.973 280.417L181.494 276.299L185.606 275.107L191.362 278.952L189.887 273.866L193.32 272.87ZM192.12 285.924L193.286 285.586L192.167 281.729L190.938 282.085C189.348 282.546 188.618 283.516 189.024 284.915C189.356 286.059 190.53 286.385 192.12 285.924Z" fill="white"/>
<path d="M161.582 279.319L162.976 282.188L169.054 281.538L169.81 278.439L173.452 278.049L169.393 294.462L165.136 294.918L157.676 279.736L161.582 279.319ZM164.387 285.211L166.955 290.551L168.358 284.786L164.387 285.211Z" fill="white"/>
</svg>
