<svg width="306" height="306" viewBox="0 0 306 306" fill="none" xmlns="http://www.w3.org/2000/svg">
<path d="M141.847 287.712C143.023 287.805 143.851 288.682 143.756 289.88C143.658 291.1 142.725 291.814 141.527 291.719C140.329 291.623 139.52 290.77 139.618 289.55C139.713 288.352 140.67 287.618 141.847 287.712Z" fill="#FCD406"/>
<path d="M115.823 276.407L115.991 287.411L121.715 278.054L125.797 279.196L126.338 295.681L122.445 294.593L122.51 282.27L116.322 292.881L112.577 291.833L112.705 279.528L106.517 290.139L102.877 289.121L111.72 275.26L115.823 276.407Z" fill="#FCD406"/>
<path d="M98.7183 269.995L91.5091 283.976L82.4794 279.32L84.1515 276.077L90.0354 279.111L91.2269 276.8L85.7897 273.997L87.3016 271.065L92.7389 273.868L94.0706 271.285L88.1867 268.252L89.6886 265.339L98.7183 269.995Z" fill="#FCD406"/>
<path d="M81.1519 260.079L71.9181 272.814L69.0526 270.737L76.3627 260.654L71.587 257.192L73.5107 254.539L81.1519 260.079Z" fill="#FCD406"/>
<path d="M55.7949 243.529L57.9098 241.012C59.0711 241.39 60.1882 242.093 61.1836 243.075C64.4965 246.343 65.0057 250.805 61.2925 254.569C57.7481 258.162 53.0653 257.931 49.7524 254.663C48.7726 253.696 47.9924 252.558 47.6145 251.51L50.4405 249.05C50.7402 249.959 51.3178 250.836 52.2043 251.711C54.3196 253.797 56.9307 253.826 58.8641 251.866C60.8588 249.844 60.7182 247.342 58.5563 245.21C57.7164 244.381 56.7548 243.831 55.7949 243.529Z" fill="#FCD406"/>
<path d="M46.4381 239.027C42.4551 241.87 37.8836 241.108 35.243 237.409C32.5896 233.693 33.3271 229.086 37.3101 226.242C41.2398 223.436 45.791 224.133 48.4824 227.903C51.1865 231.69 50.3677 236.221 46.4381 239.027ZM45.7568 229.876C44.2841 227.813 41.818 227.48 39.5954 229.067C37.3372 230.679 36.9328 233.196 38.3547 235.187C39.7766 237.179 42.2503 237.56 44.5085 235.948C46.7311 234.361 47.204 231.903 45.7568 229.876Z" fill="#FCD406"/>
<path d="M36.0579 207.178L28.727 214.802L37.677 210.786L39.0187 213.776L24.667 220.216L22.8869 216.25L31.5427 207.576L19.273 208.197L17.4929 204.23L31.8447 197.789L33.2223 200.859L24.2125 204.902L34.8682 204.527L36.0579 207.178Z" fill="#FCD406"/>
<path d="M29.0664 188.756L13.7838 192.484L11.3763 182.614L14.921 181.749L16.4898 188.18L19.0157 187.564L17.5659 181.621L20.771 180.839L22.2208 186.783L25.0438 186.094L23.475 179.662L26.6589 178.886L29.0664 188.756Z" fill="#FCD406"/>
<path d="M18.3552 165.173C18.465 166.347 17.7435 167.314 16.5471 167.426C15.3289 167.54 14.4644 166.743 14.3526 165.547C14.2408 164.35 14.9426 163.407 16.1607 163.293C17.3572 163.181 18.2454 163.998 18.3552 165.173Z" fill="#FCD406"/>
<path d="M11.894 152.167L8.27136 151.994L8.82906 140.297L12.4517 140.469L12.2572 144.55L24.3473 145.127L24.1788 148.662L12.0886 148.086L11.894 152.167Z" fill="#FCD406"/>
<path d="M17.6842 131.798C12.9024 130.756 10.3981 126.856 11.3657 122.416C12.338 117.955 16.2471 115.408 21.0289 116.45C25.7467 117.478 28.2862 121.318 27.3 125.844C26.3092 130.391 22.4019 132.826 17.6842 131.798ZM24.0079 125.149C24.5475 122.673 23.1386 120.621 20.4702 120.04C17.7591 119.449 15.6225 120.839 15.1015 123.23C14.5805 125.621 15.9588 127.71 18.6699 128.301C21.3383 128.883 23.4776 127.582 24.0079 125.149Z" fill="#FCD406"/>
<path d="M27.4068 102.942C26.9733 104.039 25.8923 104.575 24.7747 104.134C23.6368 103.684 23.2264 102.583 23.668 101.465C24.1095 100.347 25.1622 99.8236 26.3001 100.273C27.4176 100.715 27.8403 101.845 27.4068 102.942Z" fill="#FCD406"/>
<path d="M40.7661 81.9134L43.7371 83.3212C43.6655 84.5404 43.2686 85.7993 42.571 87.0111C40.2493 91.0443 36.0627 92.6678 31.4804 90.03C27.1064 87.5121 26.1427 82.9238 28.4644 78.8907C29.1511 77.6977 30.0541 76.6546 30.9721 76.0234L34.0683 78.1334C33.2645 78.6539 32.5628 79.4348 31.9415 80.5141C30.4591 83.0893 31.0933 85.6224 33.4792 86.9958C35.9407 88.4128 38.3252 87.6426 39.8403 85.0106C40.4289 83.9881 40.7168 82.9186 40.7661 81.9134Z" fill="#FCD406"/>
<path d="M55.9839 68.058L53.01 66.9946L49.1613 71.665L50.7735 74.3808L48.467 77.1797L39.9676 62.7582L42.6631 59.4872L58.4571 65.0568L55.9839 68.058ZM49.9181 65.8338L44.4018 63.836L47.4032 68.8856L49.9181 65.8338Z" fill="#FCD406"/>
<path d="M55.6113 50.8737L53.2203 48.1467L62.0256 40.4262L64.4166 43.1532L61.3446 45.8468L69.3244 54.9478L66.6631 57.2812L58.6833 48.1802L55.6113 50.8737Z" fill="#FCD406"/>
<path d="M90.9975 39.972L83.0304 32.3795L85.6936 43.0203L82.0187 45.1323L69.8803 33.965L73.3846 31.9509L82.1295 40.6336L78.8969 28.7829L82.2687 26.845L90.9567 35.5603L87.7242 23.7096L91.0012 21.8262L94.6913 37.8491L90.9975 39.972Z" fill="#FCD406"/>
<path d="M117.619 28.9995L115.699 26.4921L109.931 28.3254L109.811 31.4814L106.354 32.5801L107.044 15.8545L111.084 14.5705L121.325 27.8215L117.619 28.9995ZM113.732 23.8389L110.183 19.1667L109.963 25.0368L113.732 23.8389Z" fill="#FCD406"/>
<path d="M129.586 26.1655L127.296 10.6023L130.798 10.0871L132.61 22.408L138.447 21.5495L138.923 24.7918L129.586 26.1655Z" fill="#FCD406"/>
<path d="M148.261 24.0196L148.507 8.29085L152.046 8.34624L151.938 15.2276L157.026 8.42419L161.439 8.49325L155.245 16.1534L161.761 24.2309L157.283 24.1608L151.903 17.4777L151.8 24.075L148.261 24.0196Z" fill="#FCD406"/>
<path d="M176.537 19.8601C175.375 19.658 174.631 18.7081 174.837 17.5242C175.046 16.3188 176.042 15.6936 177.226 15.8994C178.41 16.1052 179.136 17.0298 178.926 18.2353C178.721 19.4191 177.7 20.0621 176.537 19.8601Z" fill="#FCD406"/>
<path d="M194.267 30.8929L196.51 27.6933L193.744 26.7339L191.501 29.9336L188.652 28.9456L190.895 25.746L188.46 24.9012L189.873 22.8938L192.308 23.7386L194.129 21.1557L191.652 20.2966L193.283 17.9947L195.739 18.8467L198.039 15.551L200.887 16.539L198.588 19.8346L201.354 20.794L203.653 17.4983L206.502 18.4862L204.182 21.7748L206.659 22.6338L205.028 24.9357L202.572 24.0838L200.751 26.6667L203.249 27.5329L201.836 29.5403L199.359 28.6812L197.116 31.8808L194.267 30.8929ZM197.923 25.6859L199.723 23.0958L196.957 22.1365L195.157 24.7265L197.923 25.6859Z" fill="white"/>
<path d="M216.021 29.9014L215.389 26.7529C216.962 26.461 219.26 25.8402 220.736 25.2226L224.196 27.0926L216.715 40.9311L213.602 39.248L219.035 29.1959C218.154 29.5393 217.052 29.7876 216.021 29.9014Z" fill="white"/>
<path d="M233.084 44.073C232.131 43.3768 231.885 42.1956 232.594 41.2254C233.316 40.2377 234.486 40.1184 235.456 40.8274C236.426 41.5365 236.668 42.6872 235.946 43.675C235.237 44.6451 234.036 44.7692 233.084 44.073Z" fill="white"/>
<path d="M250.064 62.3032L247.953 64.8232C246.791 64.4465 245.673 63.745 244.676 62.7643C241.359 59.5007 240.843 55.04 244.551 51.2709C248.091 47.6731 252.774 47.8975 256.091 51.1612C257.072 52.1265 257.854 53.2633 258.234 54.3108L255.411 56.7749C255.11 55.8658 254.531 54.9899 253.644 54.1166C251.525 52.0327 248.914 52.0077 246.984 53.9701C244.992 55.9949 245.136 58.4965 247.301 60.6263C248.142 61.4537 249.104 62.002 250.064 62.3032Z" fill="white"/>
<path d="M253.369 72.0173L265.965 62.5941L268.085 65.4282L258.114 72.8882L261.647 77.6117L259.023 79.5749L253.369 72.0173Z" fill="white"/>
<path d="M270.142 84.1697L278.046 80.0487L279.683 83.1871L271.798 87.298C269.608 88.4394 268.861 89.8886 269.76 91.6128C270.669 93.3564 272.295 93.5927 274.504 92.4412L282.369 88.3404L284.006 91.4789L276.101 95.5999C272.324 97.5695 268.744 96.8484 266.815 93.1481C264.815 89.3122 266.267 86.1898 270.142 84.1697Z" fill="white"/>
<path d="M273.918 108.096L288.881 103.242L290.364 107.814C291.557 111.493 290.69 113.634 288.321 114.403C286.908 114.861 285.562 114.608 284.604 113.495C284.623 115.465 283.597 116.693 281.748 117.293C279.295 118.088 276.877 117.219 275.502 112.98L273.918 108.096ZM286.88 108.898L286.475 107.651L283.504 108.615L283.901 109.842C284.373 111.296 285.138 111.6 286.094 111.289C287.07 110.973 287.318 110.249 286.88 108.898ZM281.529 111.025L281.01 109.424L277.726 110.489L278.265 112.152C278.798 113.794 279.673 114.153 280.67 113.83C281.709 113.493 282.007 112.5 281.529 111.025Z" fill="white"/>
<path d="M286.353 130.817C286.156 129.654 286.804 128.636 287.989 128.435C289.195 128.231 290.117 128.962 290.317 130.146C290.517 131.331 289.888 132.324 288.681 132.528C287.497 132.729 286.55 131.98 286.353 130.817Z" fill="white"/>
<path d="M281.628 144.877L297.341 144.128L297.51 147.663L281.797 148.412L281.628 144.877Z" fill="white"/>
<path d="M281.974 158.248L297.629 159.794L297.283 163.294L286.401 169.004L296.62 170.013L296.298 173.274L280.643 171.729L280.989 168.228L291.284 162.461L281.652 161.51L281.974 158.248Z" fill="white"/>
<path d="M283.532 188.134C283.835 186.993 284.847 186.336 286.008 186.645C287.191 186.959 287.726 188.006 287.417 189.167C287.108 190.329 286.123 190.971 284.941 190.656C283.779 190.347 283.229 189.274 283.532 188.134Z" fill="white"/>
<path d="M275.944 204.853L276.306 204.01L272.111 202.206L273.51 198.954L287.961 205.169L286.217 209.224C284.62 212.937 281.958 214.812 278.446 213.302C274.913 211.782 274.364 208.526 275.944 204.853ZM282.753 208.043L283.211 206.979L279.156 205.235L278.725 206.239C277.991 207.945 278.193 209.245 279.618 209.858C281.003 210.453 282.037 209.709 282.753 208.043Z" fill="white"/>
<path d="M271.913 220.923C276.011 223.598 276.964 228.134 274.48 231.939C271.984 235.763 267.425 236.752 263.326 234.077C259.283 231.438 258.276 226.945 260.808 223.066C263.352 219.17 267.87 218.283 271.913 220.923ZM263.637 224.887C262.252 227.01 262.839 229.428 265.126 230.921C267.45 232.437 269.941 231.898 271.279 229.849C272.616 227.8 272.071 225.357 269.748 223.84C267.461 222.348 264.999 222.802 263.637 224.887Z" fill="white"/>
<path d="M250.982 236.961L262.374 247.808L259.934 250.371L254.949 245.626L256.499 253.979L253.455 257.175L252.026 247.428L241.671 246.739L244.76 243.496L253.32 244.074L248.541 239.524L250.982 236.961Z" fill="white"/>
<path d="M234.66 252.955L243.894 265.691L241.028 267.768L237.347 262.692L232.059 266.527L235.739 271.603L232.874 273.681L223.64 260.945L226.506 258.868L230.135 263.873L235.424 260.039L231.794 255.033L234.66 252.955Z" fill="white"/>
<path d="M204.971 270.974L207.216 273.195L212.679 270.591L212.367 267.448L215.641 265.888L217.242 282.551L213.415 284.375L201.46 272.647L204.971 270.974ZM209.526 275.555L213.68 279.699L213.096 273.853L209.526 275.555Z" fill="white"/>
<path d="M193.539 275.463L197.775 290.613L193.42 291.831C189.737 292.86 186.693 292.033 185.775 288.75C185.469 287.656 185.398 286.428 185.855 285.302C186.284 284.32 187.047 283.562 188.173 282.885L181.798 278.746L185.88 277.605L191.543 281.466L190.131 276.416L193.539 275.463ZM192.227 288.376L193.384 288.052L192.313 284.223L191.093 284.564C189.515 285.005 188.783 285.958 189.171 287.347C189.489 288.483 190.649 288.817 192.227 288.376Z" fill="white"/>
<path d="M162.098 281.593L163.461 284.442L169.483 283.834L170.25 280.771L173.858 280.407L169.741 296.632L165.524 297.058L158.229 281.983L162.098 281.593ZM164.84 287.443L167.351 292.745L168.774 287.046L164.84 287.443Z" fill="white"/>
</svg>
