<svg width="122" height="102" viewBox="0 0 122 102" fill="none" xmlns="http://www.w3.org/2000/svg">
<path d="M48.7019 35L51.0539 26.744H44.6219L42.2699 35H35.6459L37.9979 26.744H32.3339L33.8219 21.56H39.4859L41.4059 14.888H35.6459L37.3739 8.936H43.0859L45.4859 0.439999H52.1099L49.7099 8.936H56.1419L58.5419 0.439999H65.1659L62.7179 8.936H68.4779L66.7499 14.888H61.0379L59.1179 21.56H64.9259L63.4379 26.744H57.6779L55.3259 35H48.7019ZM52.5419 21.56L54.4139 14.888H47.9819L46.1099 21.56H52.5419ZM74.7633 14.408L70.2513 8.984C72.9873 6.776 76.7793 3.176 78.9873 0.439999H87.6273V35H79.8513V9.896C78.5073 11.48 76.6353 13.112 74.7633 14.408Z" fill="white"/>
<path d="M29.93 65.432L30.122 67.472C29.042 67.976 27.578 68.264 26.162 68.264C20.93 68.264 17.354 64.904 17.354 59.36C17.354 54.032 20.954 50.456 25.946 50.456C27.458 50.456 28.994 50.72 30.026 51.272L29.834 53.6C28.85 53.12 27.626 52.856 26.09 52.856C22.178 52.856 19.586 55.592 19.586 59.504C19.586 63.536 22.226 66.176 26.33 66.176C27.626 66.176 28.946 65.864 29.93 65.432ZM33.5261 68V50.72H35.7101V65.96H42.6221V68H33.5261ZM45.2186 60.248V50.72H47.4026V60.224C47.4026 64.136 48.7946 66.2 51.7466 66.2C54.7466 66.2 56.1386 64.136 56.1386 60.2V50.72H58.3226V60.248C58.3226 65.36 56.0666 68.264 51.7466 68.264C47.3066 68.264 45.2186 65.384 45.2186 60.248ZM62.7527 68V50.72H66.9287C71.2007 50.72 72.9527 52.28 72.9527 54.968C72.9527 56.744 72.2327 58.184 70.4087 58.76C72.5927 59.384 73.7447 60.896 73.7447 63.056C73.7447 65.72 72.2807 68 67.3127 68H62.7527ZM66.9287 53H64.8887V58.328H66.7847C69.8327 58.328 70.7207 57.224 70.7207 55.496C70.7207 53.936 69.7367 53 66.9287 53ZM67.1207 60.08H64.8887V66.128H67.3127C70.5047 66.128 71.5127 64.904 71.5127 63.152C71.5127 61.064 69.9047 60.08 67.1207 60.08ZM83.0027 68V50.72H85.1867V68H83.0027ZM89.7527 68V50.72H91.8647L101.561 64.496V50.72H103.649V68H101.513L91.8167 54.56V68H89.7527Z" fill="white" fill-opacity="0.8"/>
<path d="M7.14916 96.656H6.28516V101H1.48516V83.72H6.98116C11.5652 83.72 14.8292 85.688 14.8292 90.128C14.8292 94.544 11.7332 96.656 7.14916 96.656ZM7.38916 88.64H6.28516V92.456H7.38916C8.97316 92.456 9.90916 91.856 9.90916 90.536C9.90916 89.216 8.94916 88.64 7.38916 88.64ZM15.9086 92.384C15.9086 86.96 19.5806 83.384 24.6206 83.384C29.6846 83.384 33.4046 86.96 33.4046 92.384C33.4046 97.712 29.8526 101.336 24.6686 101.336C19.4846 101.336 15.9086 97.712 15.9086 92.384ZM24.6446 96.776C26.9966 96.776 28.4846 95.144 28.4846 92.696C28.4846 90.128 26.8286 88.544 24.6206 88.544C22.4366 88.544 20.8286 90.128 20.8286 92.696C20.8286 95.144 22.3646 96.776 24.6446 96.776ZM35.2117 101V83.72H40.0117V90.968L44.7637 83.72H50.6917L44.5237 92.168L51.2917 101H45.3157L40.0117 94.016V101H35.2117ZM52.6023 101V83.72H57.4023V90.32H63.4023V83.72H68.2023V101H63.4023V94.76H57.4023V101H52.6023ZM82.3143 101L81.4743 98.528H75.2583L74.4423 101H69.5223L75.6423 83.72H81.4023L87.5943 101H82.3143ZM80.0583 94.328L78.3543 89.24L76.6503 94.328H80.0583ZM88.907 101V83.72H94.523C98.915 83.72 102.059 85.496 102.059 89.48C102.059 90.584 101.915 91.88 101.243 93.008C100.715 93.872 99.875 94.664 98.555 95.168L103.403 101H97.763L93.707 95.816V101H88.907ZM94.787 88.64H93.707V91.976H94.931C96.299 91.976 97.139 91.376 97.139 90.128C97.139 89.12 96.227 88.64 94.787 88.64ZM116.322 101L115.482 98.528H109.266L108.45 101H103.53L109.65 83.72H115.41L121.602 101H116.322ZM114.066 94.328L112.362 89.24L110.658 94.328H114.066Z" fill="white"/>
</svg>
