<svg width="64" height="64" viewBox="0 0 64 64" fill="none" xmlns="http://www.w3.org/2000/svg">
<rect width="64" height="64" rx="4" fill="#0F0F0F"/>
<path d="M32 27.2C30.727 27.2 29.5061 27.7057 28.6059 28.6059C27.7057 29.5061 27.2 30.727 27.2 32C27.2 33.273 27.7057 34.4939 28.6059 35.3941C29.5061 36.2943 30.727 36.8 32 36.8C33.273 36.8 34.4939 36.2943 35.3941 35.3941C36.2943 34.4939 36.8 33.273 36.8 32C36.8 30.727 36.2943 29.5061 35.3941 28.6059C34.4939 27.7057 33.273 27.2 32 27.2ZM32 24C34.1217 24 36.1566 24.8429 37.6569 26.3431C39.1571 27.8434 40 29.8783 40 32C40 34.1217 39.1571 36.1566 37.6569 37.6569C36.1566 39.1571 34.1217 40 32 40C29.8783 40 27.8434 39.1571 26.3431 37.6569C24.8429 36.1566 24 34.1217 24 32C24 29.8783 24.8429 27.8434 26.3431 26.3431C27.8434 24.8429 29.8783 24 32 24ZM42.4 23.6C42.4 24.1304 42.1893 24.6391 41.8142 25.0142C41.4391 25.3893 40.9304 25.6 40.4 25.6C39.8696 25.6 39.3609 25.3893 38.9858 25.0142C38.6107 24.6391 38.4 24.1304 38.4 23.6C38.4 23.0696 38.6107 22.5609 38.9858 22.1858C39.3609 21.8107 39.8696 21.6 40.4 21.6C40.9304 21.6 41.4391 21.8107 41.8142 22.1858C42.1893 22.5609 42.4 23.0696 42.4 23.6ZM32 19.2C28.0416 19.2 27.3952 19.2112 25.5536 19.2928C24.2992 19.352 23.4576 19.52 22.6768 19.824C22.0234 20.0639 21.4327 20.4484 20.9488 20.9488C20.448 21.4326 20.063 22.0233 19.8224 22.6768C19.5184 23.4608 19.3504 24.3008 19.2928 25.5536C19.2096 27.32 19.1984 27.9376 19.1984 32C19.1984 35.96 19.2096 36.6048 19.2912 38.4464C19.3504 39.6992 19.5184 40.5424 19.8208 41.3216C20.0928 42.0176 20.4128 42.5184 20.944 43.0496C21.4832 43.5872 21.984 43.9088 22.672 44.1744C23.4624 44.48 24.304 44.6496 25.552 44.7072C27.3184 44.7904 27.936 44.8 31.9984 44.8C35.9584 44.8 36.6032 44.7888 38.4448 44.7072C39.696 44.648 40.5376 44.48 41.32 44.1776C41.9728 43.9365 42.5633 43.5522 43.048 43.0528C43.5872 42.5152 43.9088 42.0144 44.1744 41.3248C44.4784 40.5376 44.648 39.696 44.7056 38.4448C44.7888 36.68 44.7984 36.0608 44.7984 32C44.7984 28.0416 44.7872 27.3952 44.7056 25.5536C44.6464 24.3024 44.4768 23.4576 44.1744 22.6768C43.9332 22.024 43.5489 21.4336 43.0496 20.9488C42.566 20.4478 41.9752 20.0627 41.3216 19.8224C40.5376 19.5184 39.696 19.3504 38.4448 19.2928C36.68 19.2096 36.064 19.2 32 19.2ZM32 16C36.3472 16 36.8896 16.016 38.5968 16.096C40.2992 16.176 41.4608 16.4432 42.48 16.84C43.536 17.2464 44.4256 17.7968 45.3152 18.6848C46.1288 19.4846 46.7583 20.4521 47.16 21.52C47.5552 22.5392 47.824 23.7008 47.904 25.4048C47.9792 27.1104 48 27.6528 48 32C48 36.3472 47.984 36.8896 47.904 38.5952C47.824 40.2992 47.5552 41.4592 47.16 42.48C46.7594 43.5484 46.1298 44.5162 45.3152 45.3152C44.5151 46.1285 43.5477 46.758 42.48 47.16C41.4608 47.5552 40.2992 47.824 38.5968 47.904C36.8896 47.9792 36.3472 48 32 48C27.6528 48 27.1104 47.984 25.4032 47.904C23.7008 47.824 22.5408 47.5552 21.52 47.16C20.4517 46.7592 19.484 46.1295 18.6848 45.3152C17.8711 44.5155 17.2415 43.5479 16.84 42.48C16.4432 41.4608 16.176 40.2992 16.096 38.5952C16.0192 36.8896 16 36.3472 16 32C16 27.6528 16.016 27.1104 16.096 25.4048C16.176 23.6992 16.4432 22.5408 16.84 21.52C17.2404 20.4515 17.8701 19.4837 18.6848 18.6848C19.4843 17.8708 20.4519 17.2412 21.52 16.84C22.5392 16.4432 23.6992 16.176 25.4032 16.096C27.1104 16.0208 27.6528 16 32 16Z" fill="#C0C0C0"/>
</svg>
