<svg width="64" height="64" viewBox="0 0 64 64" fill="none" xmlns="http://www.w3.org/2000/svg">
<rect width="64" height="64" rx="4" fill="#0F0F0F"/>
<path d="M32 48L22.6273 38.6274C20.7736 36.7736 19.5112 34.4118 18.9998 31.8407C18.4884 29.2695 18.7509 26.6044 19.7541 24.1824C20.7573 21.7604 22.4562 19.6903 24.636 18.2338C26.8157 16.7774 29.3784 16 32 16C34.6215 16 37.1842 16.7774 39.3639 18.2338C41.5437 19.6903 43.2426 21.7604 44.2458 24.1824C45.249 26.6044 45.5115 29.2695 45.0001 31.8407C44.4887 34.4118 43.2263 36.7736 41.3726 38.6274L32 48ZM39.2901 36.5449C40.7318 35.1031 41.7136 33.2661 42.1113 31.2663C42.509 29.2665 42.3047 27.1937 41.5244 25.31C40.7441 23.4263 39.4227 21.8163 37.7274 20.6835C36.0321 19.5508 34.0389 18.9461 32 18.9461C29.961 18.9461 27.9679 19.5508 26.2725 20.6835C24.5772 21.8163 23.2558 23.4263 22.4755 25.31C21.6952 27.1937 21.491 29.2665 21.8887 31.2663C22.2864 33.2661 23.2681 35.1031 24.7098 36.5449L32 43.835L39.2901 36.5449ZM32 32.2002C31.2188 32.2002 30.4696 31.8899 29.9172 31.3375C29.3648 30.7851 29.0544 30.0359 29.0544 29.2547C29.0544 28.4735 29.3648 27.7243 29.9172 27.1719C30.4696 26.6195 31.2188 26.3092 32 26.3092C32.7812 26.3092 33.5304 26.6195 34.0828 27.1719C34.6351 27.7243 34.9455 28.4735 34.9455 29.2547C34.9455 30.0359 34.6351 30.7851 34.0828 31.3375C33.5304 31.8899 32.7812 32.2002 32 32.2002Z" fill="#C0C0C0"/>
</svg>
