<svg width="1920" height="434" viewBox="0 0 1920 434" fill="none" xmlns="http://www.w3.org/2000/svg">
<path d="M1921.89 61.2945C1919.05 48.8664 1906.99 40.8287 1894.42 42.9915L1735.23 70.3969L1758.18 170.806L1913.47 126.309C1925.73 122.797 1933.1 110.316 1930.26 97.8881L1921.89 61.2945Z" fill="url(#paint0_linear_159_40)"/>
<ellipse cx="10.5" cy="51.5" rx="10.5" ry="51.5" transform="matrix(-0.974846 0.222882 0.222882 0.974846 1749.85 67.0537)" fill="#292929"/>
<ellipse cx="10.5" cy="51.5" rx="10.5" ry="51.5" transform="matrix(-0.974846 0.222882 0.222882 0.974846 1745.95 67.9453)" fill="#D9D9D9"/>
<path d="M1900.03 77.8523L1905.73 102.759C1905.85 103.278 1905.54 103.799 1905.02 103.944L1791.75 135.897C1791.21 136.047 1790.66 135.737 1790.51 135.204L1777.14 87.4211C1776.96 86.7495 1776.16 86.4717 1775.59 86.8823L1770.6 90.519" stroke="url(#paint1_linear_159_40)" stroke-width="10" stroke-linecap="round"/>
<path d="M1900.03 77.8523L1905.73 102.759C1905.85 103.278 1905.54 103.799 1905.02 103.944L1791.75 135.897C1791.21 136.047 1790.66 135.737 1790.51 135.204L1777.14 87.4211C1776.96 86.7495 1776.16 86.4717 1775.59 86.8823L1770.6 90.519" stroke="url(#paint2_linear_159_40)" stroke-width="10" stroke-linecap="round"/>
<g style="mix-blend-mode:hard-light" filter="url(#filter0_f_159_40)">
<path d="M1744.24 104.1C1743.93 96.7387 1737.12 91.3922 1729.9 92.8364L-73.1169 453.275L-16.7278 699.911L1737.6 159.113C1742.81 157.507 1746.28 152.589 1746.05 147.141L1744.24 104.1Z" fill="url(#paint3_linear_159_40)"/>
</g>
<defs>
<filter id="filter0_f_159_40" x="-119.117" y="46.6001" width="1911.18" height="699.311" filterUnits="userSpaceOnUse" color-interpolation-filters="sRGB">
<feFlood flood-opacity="0" result="BackgroundImageFix"/>
<feBlend mode="normal" in="SourceGraphic" in2="BackgroundImageFix" result="shape"/>
<feGaussianBlur stdDeviation="23" result="effect1_foregroundBlur_159_40"/>
</filter>
<linearGradient id="paint0_linear_159_40" x1="1834.38" y1="91.3228" x2="1870.04" y2="247.298" gradientUnits="userSpaceOnUse">
<stop stop-color="#0F0F0F"/>
<stop offset="1" stop-color="#D9D9D9" stop-opacity="0"/>
</linearGradient>
<linearGradient id="paint1_linear_159_40" x1="1841.75" y1="116.822" x2="1844.13" y2="124.997" gradientUnits="userSpaceOnUse">
<stop stop-color="#6C5555"/>
<stop offset="1" stop-opacity="0"/>
</linearGradient>
<linearGradient id="paint2_linear_159_40" x1="1811.46" y1="67.3289" x2="1830.92" y2="100.835" gradientUnits="userSpaceOnUse">
<stop stop-color="#333333"/>
<stop offset="1" stop-color="white" stop-opacity="0"/>
</linearGradient>
<linearGradient id="paint3_linear_159_40" x1="1018.22" y1="276.907" x2="1053.88" y2="432.882" gradientUnits="userSpaceOnUse">
<stop stop-color="#B60606"/>
<stop offset="1" stop-color="#D9D9D9" stop-opacity="0"/>
</linearGradient>
</defs>
</svg>
