<svg viewBox="0 0 119 102" fill="none" xmlns="http://www.w3.org/2000/svg">
<path d="M36.6198 35.768L38.5878 27.608H30.6198L31.6278 23.336H39.4518L41.8518 13.88H33.7878L34.7958 9.608H42.7638L44.8758 0.631999H49.7238L47.6598 9.608H55.9637L58.0758 0.631999H62.8758L60.8598 9.608H68.8758V9.656L67.9158 13.88H59.9478L57.6918 23.336H65.7078L64.6998 27.608H56.8278L54.9078 35.768H49.8198L51.7878 27.608H43.5798L41.7078 35.768H36.6198ZM44.4438 23.336H52.6518L55.0518 13.88H46.7478L44.4438 23.336ZM74.4963 35V31.832C75.2323 31.8 75.8403 31.704 76.3203 31.544C76.8323 31.384 77.2163 31.016 77.4723 30.44C77.7603 29.864 77.9043 28.936 77.9043 27.656V8.408L72.6723 11.528L70.9443 8.648L81.9363 0.631999H84.8163V27.128C84.8163 27.992 84.8003 28.824 84.7682 29.624C84.7682 30.424 84.7363 31.032 84.6723 31.448C85.1843 31.384 85.8243 31.352 86.5923 31.352C87.3923 31.32 87.9523 31.304 88.2723 31.304V35H74.4963Z" fill="white"/>
<path d="M28.43 65.432L28.622 67.472C27.542 67.976 26.078 68.264 24.662 68.264C19.43 68.264 15.854 64.904 15.854 59.36C15.854 54.032 19.454 50.456 24.446 50.456C25.958 50.456 27.494 50.72 28.526 51.272L28.334 53.6C27.35 53.12 26.126 52.856 24.59 52.856C20.678 52.856 18.086 55.592 18.086 59.504C18.086 63.536 20.726 66.176 24.83 66.176C26.126 66.176 27.446 65.864 28.43 65.432ZM32.0261 68V50.72H34.2101V65.96H41.1221V68H32.0261ZM43.7186 60.248V50.72H45.9026V60.224C45.9026 64.136 47.2946 66.2 50.2466 66.2C53.2466 66.2 54.6386 64.136 54.6386 60.2V50.72H56.8226V60.248C56.8226 65.36 54.5666 68.264 50.2466 68.264C45.8066 68.264 43.7186 65.384 43.7186 60.248ZM61.2527 68V50.72H65.4287C69.7007 50.72 71.4527 52.28 71.4527 54.968C71.4527 56.744 70.7327 58.184 68.9087 58.76C71.0927 59.384 72.2447 60.896 72.2447 63.056C72.2447 65.72 70.7807 68 65.8127 68H61.2527ZM65.4287 53H63.3887V58.328H65.2847C68.3327 58.328 69.2207 57.224 69.2207 55.496C69.2207 53.936 68.2367 53 65.4287 53ZM65.6207 60.08H63.3887V66.128H65.8127C69.0047 66.128 70.0127 64.904 70.0127 63.152C70.0127 61.064 68.4047 60.08 65.6207 60.08ZM81.5027 68V50.72H83.6867V68H81.5027ZM88.2527 68V50.72H90.3647L100.061 64.496V50.72H102.149V68H100.013L90.3167 54.56V68H88.2527Z" fill="white" fill-opacity="0.8"/>
<path d="M1.47344 99.416C1.84144 99.4 2.14544 99.352 2.38544 99.272C2.64144 99.192 2.83344 99.008 2.96144 98.72C3.10544 98.432 3.17744 97.968 3.17744 97.328V88.136C3.17744 87.704 3.18544 87.288 3.20144 86.888C3.23344 86.488 3.25744 86.184 3.27344 85.976C3.01744 85.992 2.69744 86.008 2.31344 86.024C1.92944 86.024 1.64944 86.032 1.47344 86.048V84.2C2.60944 84.184 3.74544 84.176 4.88144 84.176C6.01744 84.176 7.15344 84.168 8.28944 84.152C9.69744 84.136 10.9214 84.32 11.9614 84.704C13.0174 85.088 13.8254 85.68 14.3854 86.48C14.9614 87.28 15.2334 88.32 15.2014 89.6C15.1854 90.24 15.0334 90.872 14.7454 91.496C14.4574 92.104 14.0334 92.664 13.4734 93.176C12.9134 93.672 12.2094 94.08 11.3614 94.4C10.5134 94.72 9.52144 94.896 8.38544 94.928C8.03344 94.944 7.72144 94.952 7.44944 94.952C7.19344 94.952 6.92944 94.944 6.65744 94.928V97.04C6.65744 97.488 6.64944 97.912 6.63344 98.312C6.61744 98.712 6.59344 99.016 6.56144 99.224C6.73744 99.208 6.96144 99.2 7.23344 99.2C7.50544 99.184 7.76944 99.176 8.02544 99.176C8.29744 99.16 8.48944 99.152 8.60144 99.152V101H1.47344V99.416ZM6.65744 93.128C6.83344 93.144 7.00944 93.16 7.18544 93.176C7.36144 93.192 7.54544 93.2 7.73744 93.2C8.61744 93.2 9.32944 93.056 9.87344 92.768C10.4334 92.464 10.8414 92.032 11.0974 91.472C11.3534 90.896 11.4814 90.2 11.4814 89.384C11.4814 88.584 11.3694 87.944 11.1454 87.464C10.9374 86.984 10.6654 86.632 10.3294 86.408C9.99344 86.168 9.64144 86.016 9.27344 85.952C8.90544 85.872 8.56944 85.832 8.26544 85.832C7.92944 85.832 7.64144 85.872 7.40144 85.952C7.16144 86.032 6.97744 86.208 6.84944 86.48C6.72144 86.752 6.65744 87.168 6.65744 87.728V93.128ZM24.7936 101.384C23.2736 101.384 21.9776 101.128 20.9056 100.616C19.8496 100.104 18.9936 99.424 18.3376 98.576C17.6816 97.712 17.2016 96.76 16.8976 95.72C16.5936 94.68 16.4416 93.64 16.4416 92.6C16.4416 91.592 16.6096 90.576 16.9456 89.552C17.2976 88.512 17.8176 87.56 18.5056 86.696C19.2096 85.832 20.0896 85.136 21.1456 84.608C22.2016 84.08 23.4416 83.816 24.8656 83.816C26.3216 83.816 27.5776 84.08 28.6336 84.608C29.6896 85.136 30.5536 85.84 31.2256 86.72C31.8976 87.584 32.3936 88.528 32.7136 89.552C33.0496 90.576 33.2176 91.592 33.2176 92.6C33.2176 93.592 33.0416 94.6 32.6896 95.624C32.3536 96.648 31.8336 97.6 31.1296 98.48C30.4416 99.344 29.5696 100.048 28.5136 100.592C27.4576 101.12 26.2176 101.384 24.7936 101.384ZM25.0576 99.632C25.8896 99.632 26.5856 99.432 27.1456 99.032C27.7056 98.616 28.1536 98.08 28.4896 97.424C28.8256 96.768 29.0656 96.056 29.2096 95.288C29.3536 94.504 29.4256 93.744 29.4256 93.008C29.4256 91.904 29.3296 90.896 29.1376 89.984C28.9456 89.072 28.6496 88.288 28.2496 87.632C27.8496 86.96 27.3376 86.448 26.7136 86.096C26.1056 85.728 25.3856 85.552 24.5536 85.568C23.7376 85.584 23.0496 85.808 22.4896 86.24C21.9296 86.656 21.4816 87.2 21.1456 87.872C20.8096 88.528 20.5696 89.248 20.4256 90.032C20.2816 90.816 20.2096 91.576 20.2096 92.312C20.2096 93.064 20.2896 93.864 20.4496 94.712C20.6256 95.56 20.8976 96.36 21.2656 97.112C21.6336 97.864 22.1296 98.472 22.7536 98.936C23.3776 99.4 24.1456 99.632 25.0576 99.632ZM34.9656 101V99.416C35.3336 99.4 35.6376 99.352 35.8776 99.272C36.1336 99.192 36.3256 99.008 36.4536 98.72C36.5976 98.432 36.6696 97.968 36.6696 97.328V88.136C36.6696 87.704 36.6776 87.288 36.6936 86.888C36.7256 86.488 36.7496 86.184 36.7656 85.976C36.5096 85.992 36.1896 86.008 35.8056 86.024C35.4216 86.024 35.1416 86.032 34.9656 86.048V84.2H41.8536V85.784C41.5016 85.8 41.1976 85.848 40.9416 85.928C40.6856 86.008 40.4856 86.192 40.3416 86.48C40.2136 86.752 40.1496 87.216 40.1496 87.872V91.52H41.8776L43.7256 88.376C43.9976 87.896 44.2856 87.416 44.5896 86.936C44.8936 86.456 45.1496 86.128 45.3576 85.952C45.1016 85.968 44.8296 85.984 44.5416 86C44.2536 86.016 44.0216 86.032 43.8456 86.048V84.2H49.7256V85.784C49.3736 85.8 48.9896 85.864 48.5736 85.976C48.1736 86.088 47.7576 86.312 47.3256 86.648C46.8936 86.984 46.4536 87.512 46.0056 88.232L43.7016 91.928C44.0216 92.136 44.3016 92.36 44.5416 92.6C44.7976 92.824 45.0216 93.072 45.2136 93.344L47.6856 96.824C48.0056 97.272 48.3336 97.696 48.6696 98.096C49.0216 98.48 49.3816 98.792 49.7496 99.032C50.1176 99.272 50.4776 99.4 50.8296 99.416V101H47.1336C47.0056 100.984 46.7976 100.84 46.5096 100.568C46.2216 100.296 45.9176 99.968 45.5976 99.584C45.2776 99.2 45.0056 98.856 44.7816 98.552L42.4056 95.096C42.1976 94.792 41.9656 94.48 41.7096 94.16C41.4696 93.84 41.2376 93.6 41.0136 93.44H40.1496V97.064C40.1496 97.496 40.1416 97.912 40.1256 98.312C40.1096 98.712 40.0856 99.016 40.0536 99.224C40.3096 99.192 40.6296 99.176 41.0136 99.176C41.4136 99.16 41.6936 99.152 41.8536 99.152V101H34.9656ZM52.0516 101V99.416C52.4196 99.4 52.7236 99.352 52.9636 99.272C53.2196 99.192 53.4116 99.008 53.5396 98.72C53.6836 98.432 53.7556 97.968 53.7556 97.328V88.136C53.7556 87.704 53.7636 87.288 53.7796 86.888C53.8116 86.488 53.8356 86.184 53.8516 85.976C53.5956 85.992 53.2756 86.008 52.8916 86.024C52.5076 86.024 52.2276 86.032 52.0516 86.048V84.2H58.9396V85.784C58.5876 85.8 58.2836 85.848 58.0276 85.928C57.7716 86.008 57.5716 86.192 57.4276 86.48C57.2996 86.752 57.2356 87.216 57.2356 87.872V91.616H63.8356V88.136C63.8356 87.704 63.8436 87.288 63.8596 86.888C63.8756 86.488 63.8996 86.184 63.9316 85.976C63.6756 85.992 63.3556 86.008 62.9716 86.024C62.5876 86.024 62.3076 86.032 62.1316 86.048V84.2H69.0196V85.784C68.6676 85.8 68.3636 85.848 68.1076 85.928C67.8516 86.008 67.6516 86.192 67.5076 86.48C67.3796 86.752 67.3156 87.216 67.3156 87.872V97.064C67.3156 97.496 67.3076 97.912 67.2916 98.312C67.2756 98.712 67.2516 99.016 67.2196 99.224C67.4756 99.192 67.7956 99.176 68.1796 99.176C68.5796 99.16 68.8596 99.152 69.0196 99.152V101H62.1316V99.416C62.4996 99.4 62.8036 99.352 63.0436 99.272C63.2996 99.192 63.4916 99.008 63.6196 98.72C63.7636 98.432 63.8356 97.968 63.8356 97.328V93.44L57.2356 93.512V97.064C57.2356 97.496 57.2276 97.912 57.2116 98.312C57.1956 98.712 57.1716 99.016 57.1396 99.224C57.3956 99.192 57.7156 99.176 58.0996 99.176C58.4996 99.16 58.7796 99.152 58.9396 99.152V101H52.0516ZM70.3069 101V99.344C70.7549 99.344 71.1149 99.216 71.3869 98.96C71.6589 98.704 71.8829 98.368 72.0589 97.952C72.2509 97.536 72.4349 97.088 72.6109 96.608L77.2909 83.768H78.9709L84.0829 96.848C84.1789 97.088 84.3069 97.456 84.4669 97.952C84.6269 98.432 84.7229 98.856 84.7549 99.224C85.0269 99.192 85.2829 99.176 85.5229 99.176C85.7789 99.16 85.9869 99.152 86.1469 99.152V101H79.6909V99.416C80.1389 99.416 80.4429 99.328 80.6029 99.152C80.7789 98.96 80.8589 98.704 80.8429 98.384C80.8269 98.064 80.7389 97.704 80.5789 97.304L80.0989 95.984L74.8909 96.08L74.5069 97.208C74.4269 97.416 74.3069 97.728 74.1469 98.144C74.0029 98.544 73.8669 98.88 73.7389 99.152C73.9949 99.12 74.2989 99.104 74.6509 99.104C75.0189 99.088 75.2829 99.08 75.4429 99.08V101H70.3069ZM75.4909 94.28H79.4989L78.3949 91.28C78.1869 90.704 78.0029 90.128 77.8429 89.552C77.6829 88.96 77.5629 88.44 77.4829 87.992H77.4589C77.3949 88.264 77.2989 88.672 77.1709 89.216C77.0429 89.76 76.8429 90.408 76.5709 91.16L75.4909 94.28ZM87.4422 101V99.416C87.8102 99.4 88.1142 99.352 88.3542 99.272C88.6102 99.192 88.8022 99.008 88.9302 98.72C89.0742 98.432 89.1462 97.968 89.1462 97.328V88.136C89.1462 87.704 89.1542 87.288 89.1702 86.888C89.2022 86.488 89.2262 86.184 89.2422 85.976C88.9862 85.992 88.6662 86.008 88.2822 86.024C87.8982 86.024 87.6182 86.032 87.4422 86.048V84.2C88.5782 84.184 89.7142 84.176 90.8502 84.176C91.9862 84.176 93.1222 84.168 94.2582 84.152C95.6662 84.136 96.8902 84.296 97.9302 84.632C98.9702 84.968 99.7702 85.512 100.33 86.264C100.89 87.016 101.154 88.032 101.122 89.312C101.106 89.984 100.938 90.624 100.618 91.232C100.314 91.84 99.8502 92.376 99.2262 92.84C98.6182 93.304 97.8422 93.672 96.8982 93.944C97.2022 94.072 97.4982 94.28 97.7862 94.568C98.0902 94.856 98.3462 95.16 98.5542 95.48L99.6822 97.16C100.034 97.704 100.346 98.136 100.618 98.456C100.89 98.776 101.162 99.016 101.434 99.176C101.706 99.32 102.018 99.4 102.37 99.416V101H98.4102C98.1222 100.792 97.8342 100.496 97.5462 100.112C97.2742 99.712 96.9782 99.256 96.6582 98.744L94.8822 95.864C94.6742 95.544 94.4902 95.272 94.3302 95.048C94.1862 94.824 94.0342 94.632 93.8742 94.472C93.6182 94.472 93.4022 94.472 93.2262 94.472C93.0502 94.472 92.8502 94.472 92.6262 94.472V97.04C92.6262 97.488 92.6182 97.912 92.6022 98.312C92.5862 98.712 92.5622 99.016 92.5302 99.224C92.7062 99.208 92.9302 99.2 93.2022 99.2C93.4742 99.184 93.7382 99.176 93.9942 99.176C94.2662 99.16 94.4582 99.152 94.5702 99.152V101H87.4422ZM93.7782 92.744C94.6742 92.744 95.3942 92.616 95.9382 92.36C96.4822 92.088 96.8742 91.688 97.1142 91.16C97.3702 90.616 97.4982 89.936 97.4982 89.12C97.4982 88.352 97.3782 87.752 97.1382 87.32C96.8982 86.872 96.5942 86.544 96.2262 86.336C95.8742 86.112 95.5142 85.976 95.1462 85.928C94.7782 85.864 94.4742 85.832 94.2342 85.832C93.8982 85.832 93.6102 85.872 93.3702 85.952C93.1302 86.032 92.9462 86.208 92.8182 86.48C92.6902 86.752 92.6262 87.168 92.6262 87.728V92.648C92.8022 92.664 92.9862 92.688 93.1782 92.72C93.3702 92.736 93.5702 92.744 93.7782 92.744ZM102.791 101V99.344C103.239 99.344 103.599 99.216 103.871 98.96C104.143 98.704 104.367 98.368 104.543 97.952C104.735 97.536 104.919 97.088 105.095 96.608L109.775 83.768H111.455L116.567 96.848C116.663 97.088 116.791 97.456 116.951 97.952C117.111 98.432 117.207 98.856 117.239 99.224C117.511 99.192 117.767 99.176 118.007 99.176C118.263 99.16 118.471 99.152 118.631 99.152V101H112.175V99.416C112.623 99.416 112.927 99.328 113.087 99.152C113.263 98.96 113.343 98.704 113.327 98.384C113.311 98.064 113.223 97.704 113.063 97.304L112.583 95.984L107.375 96.08L106.991 97.208C106.911 97.416 106.791 97.728 106.631 98.144C106.487 98.544 106.351 98.88 106.223 99.152C106.479 99.12 106.783 99.104 107.135 99.104C107.503 99.088 107.767 99.08 107.927 99.08V101H102.791ZM107.975 94.28H111.983L110.879 91.28C110.671 90.704 110.487 90.128 110.327 89.552C110.167 88.96 110.047 88.44 109.967 87.992H109.943C109.879 88.264 109.783 88.672 109.655 89.216C109.527 89.76 109.327 90.408 109.055 91.16L107.975 94.28Z" fill="white"/>
</svg>
