<svg width="64" height="64" viewBox="0 0 64 64" fill="none" xmlns="http://www.w3.org/2000/svg">
<rect width="64" height="64" rx="4" fill="#0F0F0F"/>
<path d="M38.4004 25.9927V37.6016C38.3999 39.7618 37.7268 41.8683 36.4745 43.6285C35.2223 45.3887 33.453 46.7153 31.4124 47.4242C29.3717 48.133 27.161 48.1888 25.0872 47.5839C23.0134 46.979 21.1794 45.7434 19.8399 44.0486C18.5004 42.3538 17.7218 40.284 17.6123 38.1266C17.5027 35.9691 18.0677 33.8311 19.2287 32.0094C20.3897 30.1877 22.0891 28.7727 24.091 27.9609C26.0929 27.1491 28.2979 26.9807 30.3998 27.4792V32.5404C29.3034 32.0203 28.0678 31.8705 26.8789 32.1133C25.69 32.3561 24.6121 32.9785 23.8075 33.8869C23.0029 34.7952 22.515 35.9403 22.4174 37.1498C22.3198 38.3593 22.6176 39.5678 23.2661 40.5935C23.9146 41.6191 24.8787 42.4063 26.0133 42.8367C27.1479 43.2671 28.3915 43.3173 29.5571 42.9799C30.7227 42.6424 31.7472 41.9355 32.4763 40.9655C33.2054 39.9956 33.5998 38.815 33.6 37.6016V16H38.4004C38.4004 18.1219 39.2433 20.1569 40.7437 21.6573C42.2441 23.1577 44.2791 24.0006 46.401 24.0006V28.8009C43.4918 28.8053 40.6686 27.8144 38.4004 25.9927Z" fill="#C0C0C0"/>
</svg>
