<svg width="24" height="30" viewBox="0 0 24 30" fill="none" xmlns="http://www.w3.org/2000/svg">
<path d="M12 29.4706L3.51467 20.9852C1.83646 19.307 0.693582 17.1688 0.230571 14.841C-0.232439 12.5133 0.00520913 10.1005 0.913465 7.90776C1.82172 5.71506 3.35979 3.84092 5.33318 2.52235C7.30656 1.20378 9.62663 0.5 12 0.5C14.3734 0.5 16.6934 1.20378 18.6668 2.52235C20.6402 3.84092 22.1783 5.71506 23.0865 7.90776C23.9948 10.1005 24.2324 12.5133 23.7694 14.841C23.3064 17.1688 22.1636 19.307 20.4853 20.9852L12 29.4706ZM18.6 19.0999C19.9052 17.7946 20.794 16.1315 21.1541 14.3211C21.5141 12.5106 21.3292 10.634 20.6228 8.92864C19.9163 7.22325 18.7201 5.76564 17.1852 4.74012C15.6504 3.7146 13.8459 3.16724 12 3.16724C10.1541 3.16724 8.34962 3.7146 6.81478 4.74012C5.27994 5.76564 4.08367 7.22325 3.37722 8.92864C2.67077 10.634 2.48589 12.5106 2.84594 14.3211C3.20599 16.1315 4.09481 17.7946 5.4 19.0999L12 25.6999L18.6 19.0999ZM12 15.1666C11.2928 15.1666 10.6145 14.8856 10.1144 14.3855C9.61429 13.8854 9.33334 13.2071 9.33334 12.4999C9.33334 11.7927 9.61429 11.1144 10.1144 10.6143C10.6145 10.1142 11.2928 9.83323 12 9.83323C12.7072 9.83323 13.3855 10.1142 13.8856 10.6143C14.3857 11.1144 14.6667 11.7927 14.6667 12.4999C14.6667 13.2071 14.3857 13.8854 13.8856 14.3855C13.3855 14.8856 12.7072 15.1666 12 15.1666Z" fill="#FCD406"/>
</svg>
