<svg width="78" height="97" viewBox="0 0 78 97" fill="none" xmlns="http://www.w3.org/2000/svg">
<g opacity="0.4">
<path d="M39.2696 25.3066L40.6875 24.4899L39.2691 22.0269L37.8513 24.4903L39.2696 25.3066ZM44.4284 34.2641L43.0104 35.0808L43.398 35.7539L44.1646 35.8791L44.4284 34.2641ZM53.4545 35.7389L54.6709 36.8337L56.6747 34.607L53.7184 34.1241L53.4545 35.7389ZM46.5046 43.4615L45.2883 42.3669L44.731 42.9861L44.9039 43.801L46.5046 43.4615ZM48.6465 53.561L48.0082 55.0678L50.8983 56.2921L50.2472 53.2215L48.6465 53.561ZM39.2696 49.5888L39.9078 48.082L39.2696 47.8117L38.6313 48.082L39.2696 49.5888ZM29.9041 53.556L28.3033 53.2165L27.6521 56.287L30.5424 55.0627L29.9041 53.556ZM32.0459 43.4563L33.6467 43.7958L33.8196 42.9806L33.2618 42.3613L32.0459 43.4563ZM25.0909 35.7339L24.827 34.1189L21.8694 34.6022L23.875 36.829L25.0909 35.7339ZM34.1171 34.2591L34.3809 35.8741L35.1477 35.7487L35.5353 35.0753L34.1171 34.2591ZM37.6332 25.3078C37.6332 26.2115 38.3658 26.9441 39.2696 26.9441C40.1733 26.9441 40.9059 26.2115 40.9059 25.3078H37.6332ZM37.8516 26.1232L43.0104 35.0808L45.8464 33.4475L40.6875 24.4899L37.8516 26.1232ZM40.9059 25.3078V25.3066H37.6332V25.3078H40.9059ZM37.8513 24.4903L32.6988 33.4429L35.5353 35.0753L40.6878 26.1228L37.8513 24.4903ZM23.875 36.829L30.83 44.5515L33.2618 42.3613L26.3068 34.6389L23.875 36.829ZM25.3548 37.3489L34.3809 35.8741L33.8532 32.6441L24.827 34.1189L25.3548 37.3489ZM30.5424 55.0627L39.9078 51.0955L38.6313 48.082L29.2658 52.0492L30.5424 55.0627ZM30.4452 43.117L28.3033 53.2165L31.5049 53.8955L33.6467 43.7958L30.4452 43.117ZM49.2848 52.0542L39.9078 48.082L38.6313 51.0955L48.0082 55.0678L49.2848 52.0542ZM50.2472 53.2215L48.1054 43.122L44.9039 43.801L47.0457 53.9005L50.2472 53.2215ZM52.2382 34.6443L45.2883 42.3669L47.7209 44.5561L54.6709 36.8337L52.2382 34.6443ZM53.7184 34.1241L44.6922 32.6493L44.1646 35.8791L53.1906 37.3539L53.7184 34.1241Z" fill="#9D00FF"/>
</g>
<g opacity="0.81">
<path d="M32.5217 71.4164L34.1559 70.7879C33.9414 70.2302 33.4572 69.8203 32.8718 69.7008L32.5217 71.4164ZM39 88.2601L37.3659 88.8887L39 93.1377L40.6342 88.8887L39 88.2601ZM45.4784 71.4164L45.1282 69.7008C44.5429 69.8203 44.0587 70.2302 43.8442 70.7879L45.4784 71.4164ZM73.1429 39.672C73.1416 33.212 71.3075 26.8849 67.8539 21.4256L64.8945 23.2976C67.994 28.1971 69.6399 33.8753 69.641 39.6726L73.1429 39.672ZM67.8539 21.4256C64.4002 15.9662 59.4687 11.5987 53.6318 8.83029L52.1312 11.9942C57.3693 14.4788 61.7951 18.3984 64.8945 23.2976L67.8539 21.4256ZM53.6318 8.83029C47.7951 6.06185 41.2927 5.00611 34.8799 5.78565L35.3025 9.26186C41.0576 8.5623 46.893 9.50979 52.1312 11.9942L53.6318 8.83029ZM34.8799 5.78565C28.4671 6.56521 22.407 9.14807 17.4036 13.2342L19.6186 15.9465C24.1089 12.2795 29.5474 9.96152 35.3025 9.26186L34.8799 5.78565ZM17.4036 13.2342C12.4001 17.3205 8.65846 22.7423 6.61335 28.87L9.935 29.9787C11.7704 24.4794 15.1282 19.6136 19.6186 15.9465L17.4036 13.2342ZM6.61335 28.87C4.56823 34.9978 4.30352 41.58 5.84995 47.8522L9.24993 47.0139C7.86213 41.385 8.0997 35.4779 9.935 29.9787L6.61335 28.87ZM5.84995 47.8522C7.39638 54.1245 10.6905 59.8292 15.3496 64.304L17.7754 61.7784C13.5941 57.7625 10.6378 52.6428 9.24993 47.0139L5.84995 47.8522ZM15.3496 64.304C20.0089 68.7788 25.8419 71.84 32.1715 73.1319L32.8718 69.7008C27.1915 68.5414 21.9567 65.7942 17.7754 61.7784L15.3496 64.304ZM30.8875 72.0449L37.3659 88.8887L40.6342 87.6317L34.1559 70.7879L30.8875 72.0449ZM40.6342 88.8887L47.1126 72.0449L43.8442 70.7879L37.3659 87.6317L40.6342 88.8887ZM45.8286 73.1319C53.5406 71.5577 60.4717 67.3674 65.4491 61.27L62.7365 59.0556C58.2695 64.5276 52.0493 68.2882 45.1282 69.7008L45.8286 73.1319ZM65.4491 61.27C70.4266 55.1728 73.1445 47.543 73.1429 39.672L69.641 39.6726C69.6424 46.7364 67.2033 53.5837 62.7365 59.0556L65.4491 61.27Z" fill="#FCD406"/>
</g>
<path d="M39.2696 25.3066L40.6875 24.4899L39.2691 22.0269L37.8513 24.4903L39.2696 25.3066ZM44.4284 34.2641L43.0104 35.0808L43.398 35.7539L44.1646 35.8791L44.4284 34.2641ZM53.4545 35.7389L54.6709 36.8337L56.6747 34.607L53.7184 34.1241L53.4545 35.7389ZM46.5046 43.4615L45.2883 42.3669L44.731 42.9861L44.9039 43.801L46.5046 43.4615ZM48.6465 53.561L48.0082 55.0678L50.8983 56.2921L50.2472 53.2215L48.6465 53.561ZM39.2696 49.5888L39.9078 48.082L39.2696 47.8117L38.6313 48.082L39.2696 49.5888ZM29.9041 53.556L28.3033 53.2165L27.6521 56.287L30.5424 55.0627L29.9041 53.556ZM32.0459 43.4563L33.6467 43.7958L33.8196 42.9806L33.2618 42.3613L32.0459 43.4563ZM25.0909 35.7339L24.827 34.1189L21.8694 34.6022L23.875 36.829L25.0909 35.7339ZM34.1171 34.2591L34.3809 35.8741L35.1477 35.7487L35.5353 35.0753L34.1171 34.2591ZM37.6332 25.3078C37.6332 26.2115 38.3658 26.9441 39.2696 26.9441C40.1733 26.9441 40.9059 26.2115 40.9059 25.3078H37.6332ZM37.8516 26.1232L43.0104 35.0808L45.8464 33.4475L40.6875 24.4899L37.8516 26.1232ZM40.9059 25.3078V25.3066H37.6332V25.3078H40.9059ZM37.8513 24.4903L32.6988 33.4429L35.5353 35.0753L40.6878 26.1228L37.8513 24.4903ZM23.875 36.829L30.83 44.5515L33.2618 42.3613L26.3068 34.6389L23.875 36.829ZM25.3548 37.3489L34.3809 35.8741L33.8532 32.6441L24.827 34.1189L25.3548 37.3489ZM30.5424 55.0627L39.9078 51.0955L38.6313 48.082L29.2658 52.0492L30.5424 55.0627ZM30.4452 43.1169L28.3033 53.2165L31.5049 53.8955L33.6467 43.7958L30.4452 43.1169ZM49.2848 52.0542L39.9078 48.082L38.6313 51.0955L48.0082 55.0678L49.2848 52.0542ZM50.2472 53.2215L48.1054 43.122L44.9039 43.801L47.0457 53.9005L50.2472 53.2215ZM52.2382 34.6443L45.2883 42.3669L47.7209 44.5561L54.6709 36.8337L52.2382 34.6443ZM53.7184 34.1241L44.6922 32.6493L44.1646 35.8791L53.1906 37.3539L53.7184 34.1241Z" fill="#9D00FF"/>
</svg>
