<svg width="1569" height="1205" viewBox="0 0 1569 1205" fill="none" xmlns="http://www.w3.org/2000/svg">
<path d="M84.6881 85.4201C91.9211 74.9217 106.1 71.9106 116.975 78.5632L254.778 162.859L196.341 247.677L68.4855 148.943C58.3952 141.151 56.1579 126.83 63.3909 116.332L84.6881 85.4201Z" fill="url(#paint0_linear_149_120)"/>
<ellipse cx="221.853" cy="202.715" rx="10.5" ry="51.5" transform="rotate(34.5657 221.853 202.715)" fill="#292929"/>
<ellipse cx="225.147" cy="204.984" rx="10.5" ry="51.5" transform="rotate(34.5657 225.147 204.984)" fill="#D9D9D9"/>
<path d="M98.8815 108.884L84.3863 129.923C84.084 130.362 84.1788 130.96 84.6018 131.284L178.052 202.836C178.491 203.172 179.12 203.088 179.456 202.648L209.536 163.188C209.959 162.634 210.805 162.671 211.177 163.261L214.471 168.485" stroke="url(#paint1_linear_149_120)" stroke-width="10" stroke-linecap="round"/>
<path d="M98.8815 108.884L84.3863 129.923C84.084 130.362 84.1788 130.96 84.6018 131.284L178.052 202.836C178.491 203.172 179.12 203.088 179.456 202.648L209.536 163.188C209.959 162.634 210.805 162.671 211.177 163.261L214.471 168.485" stroke="url(#paint2_linear_149_120)" stroke-width="10" stroke-linecap="round"/>
<g style="mix-blend-mode:hard-light" filter="url(#filter0_f_149_120)">
<path d="M234.14 190.413C237.08 183.837 245.11 181.316 251.282 185.03L1522.04 949.746L1378.5 1158.09L219.921 244.408C215.605 241.004 214.154 235.104 216.397 230.087L234.14 190.413Z" fill="url(#paint3_linear_149_120)" fill-opacity="0.8"/>
</g>
<defs>
<filter id="filter0_f_149_120" x="169.351" y="137.308" width="1398.69" height="1066.78" filterUnits="userSpaceOnUse" color-interpolation-filters="sRGB">
<feFlood flood-opacity="0" result="BackgroundImageFix"/>
<feBlend mode="normal" in="SourceGraphic" in2="BackgroundImageFix" result="shape"/>
<feGaussianBlur stdDeviation="23" result="effect1_foregroundBlur_149_120"/>
</filter>
<linearGradient id="paint0_linear_149_120" x1="154.905" y1="145.661" x2="64.1294" y2="277.417" gradientUnits="userSpaceOnUse">
<stop stop-color="#0F0F0F"/>
<stop offset="1" stop-color="#D9D9D9" stop-opacity="0"/>
</linearGradient>
<linearGradient id="paint1_linear_149_120" x1="138.635" y1="166.632" x2="133.401" y2="173.348" gradientUnits="userSpaceOnUse">
<stop stop-color="#6C5555"/>
<stop offset="1" stop-opacity="0"/>
</linearGradient>
<linearGradient id="paint2_linear_149_120" x1="185.074" y1="131.837" x2="154.612" y2="155.781" gradientUnits="userSpaceOnUse">
<stop stop-color="#333333"/>
<stop offset="1" stop-color="white" stop-opacity="0"/>
</linearGradient>
<linearGradient id="paint3_linear_149_120" x1="844.722" y1="619.71" x2="753.946" y2="751.467" gradientUnits="userSpaceOnUse">
<stop stop-color="#FCD406"/>
<stop offset="1" stop-color="#D9D9D9" stop-opacity="0"/>
</linearGradient>
</defs>
</svg>
